<?xml version="1.0" encoding="UTF-8"?>
<!DOCTYPE svg PUBLIC "-//W3C//DTD SVG 1.1//EN" "http://www.w3.org/Graphics/SVG/1.1/DTD/svg11.dtd">
<!-- Creator: CorelDRAW -->
<svg xmlns="http://www.w3.org/2000/svg" xml:space="preserve" width="210mm" height="150mm" style="shape-rendering:geometricPrecision; text-rendering:geometricPrecision; image-rendering:optimizeQuality; fill-rule:evenodd; clip-rule:evenodd"
viewBox="0 0 210 150"
 xmlns:xlink="http://www.w3.org/1999/xlink">
 <defs>
  <style type="text/css">
   <![CDATA[
    .fil18 {fill:#163560}
    .fil16 {fill:#1C4B8E}
    .fil29 {fill:#1F4A91}
    .fil19 {fill:#1F4D84}
    .fil10 {fill:#233862}
    .fil27 {fill:#2A4E96}
    .fil30 {fill:#2E3552}
    .fil23 {fill:#698EBF}
    .fil5 {fill: #fff;}
    .fil24 {fill:#82B378}
    .fil22 {fill:#93B5F5}
    .fil15 {fill: url(#grad2);}
    .fil25 {fill:#A8D29F}
    .fil4 {fill: #D8B2F9;}
    .fil14 {fill: url(#grad2);}
    .fil20 {fill:#B1C9FC}
    .fil7 {fill:#CDDBFC}
    .fil3 {fill:#D3E0FC}
    .fil21 {fill:#D6B3A0}
    .fil31 {fill:#D7E5FF}
    .fil6 {fill: url(#grad2);}
    .fil2 {fill:#E3EDFC}
    .fil1 {fill: url(#grad2);}
    .fil13 {fill:#ED975D}
    .fil11 {fill:#F4904D}
    .fil28 {fill:#F4A269}
    .fil8 {fill: url(#grad2);}
    .fil26 {fill: url(#grad2);}
    .fil17 {fill:#FCA56B}
    .fil12 {fill:#FFA561}
    .fil9 {fill:#FFB27D}
    .fil0 {fill:white}
   ]]>
  </style>
  <linearGradient id="grad2" x1="100%" y1="0%" x2="0%" y2="100%">
      <stop offset="0%" style="stop-color:rgb(38,193,240,95%);stop-opacity:1" />
      <stop offset="100%" style="stop-color:rgb(34,49,227,95%);stop-opacity:1" />
    </linearGradient>
 </defs>
 <g id="Layer_x0020_1">
  <metadata id="CorelCorpID_0Corel-Layer"/>
  <polygon class="fil0" points="206.231,144.892 -0.0615,144.892 -0.0615,-2.4598 206.231,-2.4598 "/>
  <path class="fil1" d="M26.0736 131.82c0,0 -21.94,-23.1614 -7.9677,-50.3979 13.9723,-27.2369 32.7213,-13.5306 31.8244,-45.2376 -0.8967,-31.707 43.141,-34.4156 57.1549,-25.2171 14.0147,9.1985 15.2494,15.1226 44.1878,11.4692 28.9385,-3.6534 42.396,23.3335 32.8859,42.059 -11.1081,21.8716 22.3525,23.9905 -3.0723,67.379l-155.013 -0.0546z"/>
  <path class="fil2" d="M163.051 71.7133l0 -20.4418c0.003,0 0.0052,0 0.0081,0 1.0985,-0.0001 2.3208,-0.3639 3.4245,-0.6833 0.1613,-0.0469 0.2984,-0.0688 0.4133,-0.0688 1.4249,-0.0001 -0.4266,3.3622 1.5214,4.6785 2.1057,1.4228 5.0085,0.7399 3.8702,2.2765 -1.1383,1.5365 -3.244,4.6097 -0.3986,5.7479 0.3213,0.1286 0.6454,0.1903 0.9688,0.1903 0.2867,-0.0001 0.5725,-0.0484 0.8554,-0.1413 -2.5948,3.7956 -6.3074,6.7674 -10.6631,8.442zm14.6335 -21.3061c0,-2.0989 -0.2837,-4.1328 -0.8141,-6.0633 -0.1863,-0.0858 -0.3816,-0.1301 -0.5813,-0.1301 -0.0125,-0.0001 -0.0243,0.0001 -0.0361,0.0004 0.0001,-0.0001 0.098,-0.5017 -1.738,-0.5017 -0.3057,-0.0001 -0.6661,0.014 -1.0882,0.0465 -0.0958,0.0073 -0.1879,0.0109 -0.2778,0.0109 -1.2959,-0.0001 -1.9723,-0.7454 -2.6177,-1.4907 -0.6453,-0.7453 -1.2598,-1.4905 -2.4313,-1.4905 -0.081,0 -0.1643,0.0036 -0.2505,0.0109 -2.6751,0.2276 -2.3908,1.7642 -4.5531,1.9349 -1.7152,0.1354 -3.1438,0.8078 -3.1224,1.9604l-19.835 0c-0.1046,-0.1971 -0.1569,-0.4265 -0.129,-0.7083 0.0796,-0.7984 0.5799,-1.0925 1.4338,-1.0925 0.7692,-0.0001 1.8249,0.2385 3.1194,0.562 0.3169,0.0794 0.5798,0.1157 0.7987,0.1157 1.6628,0 0.7478,-2.1043 1.5523,-3.3788 0.9106,-1.4422 5.0085,-0.3791 4.8567,-1.3659 -0.1179,-0.7723 -1.0735,-0.9402 -2.102,-0.9402 -0.2851,-0.0001 -0.5768,0.013 -0.8568,0.0296 -0.1098,0.0064 -0.2151,0.0102 -0.3146,0.0102 -1.0712,-0.0001 -1.5509,-0.4317 -1.2031,-2.5142 0.3794,-2.2766 -0.683,-1.2897 -2.2759,-3.2633 -0.7249,-0.897 -1.5759,-1.1667 -2.2869,-1.1928 -0.4951,0.3038 -0.9791,0.6271 -1.4477,0.9674 -0.9851,0.7136 -1.9089,1.5036 -2.7651,2.3619 -2.8305,2.8346 -4.9193,6.4088 -5.95,10.4092l0 0c1.0308,-4.0005 3.1194,-7.5746 5.95,-10.4092 0.8562,-0.8583 1.78,-1.6483 2.7651,-2.3619 0.4686,-0.3403 0.9526,-0.6635 1.4477,-0.9674 3.4717,-2.1366 7.5592,-3.368 11.9355,-3.368 0.5799,0 1.1552,0.0215 1.724,0.0648 0.8038,0.0593 1.5951,0.1605 2.3724,0.3017 3.2734,0.593 6.3022,1.8848 8.9287,3.715l0.0015 0c1.6364,1.1394 3.1165,2.4871 4.4014,4.0066 0.675,0.7979 1.2967,1.6425 1.8574,2.5291 0.3494,0.5519 0.6763,1.1189 0.9791,1.7016 0.7273,1.4 1.3122,2.8853 1.7388,4.4367 0.5305,1.9304 0.8141,3.9645 0.8141,6.0633l0 0zm-7.3137 -11.7664c0.6542,0 1.2126,0.3837 1.7888,0.7674 0.5769,0.3836 1.1714,0.7673 1.8986,0.7673 0.3271,0 0.6815,-0.0777 1.0734,-0.2683 -0.3027,-0.5827 -0.6299,-1.1496 -0.9791,-1.7016 -0.5606,-0.8867 -1.1825,-1.7312 -1.8574,-2.5291 -1.2849,-1.5195 -2.765,-2.8672 -4.4014,-4.0066l-0.0014 0c-0.1554,0.0138 -0.3036,0.0479 -0.4414,0.1003 0.0001,0 -0.2696,-0.0421 -0.6483,-0.0421 -0.7588,0 -1.9568,0.1686 -2.3112,1.1803 -0.5312,1.5172 -3.0355,0.9868 -3.1872,2.883 -0.0501,0.6327 0.2873,0.8098 0.8215,0.8097 0.3396,0 0.7595,-0.0717 1.209,-0.1433 0.4502,-0.0718 0.9305,-0.1434 1.3917,-0.1434 0.5275,-0.0001 1.03,0.0936 1.4345,0.3877 1.3446,0.9783 1.3652,2.3999 2.4305,2.3997 0.2572,-0.0001 0.5754,-0.0829 0.988,-0.2747 0.2815,-0.1312 0.5437,-0.1863 0.7913,-0.1863zm-20.6211 -7.7032c-1.3777,0 -1.8589,1.1629 -0.7382,2.426 0.9563,1.0772 1.7667,2.9465 2.6059,2.9465 0.21,-0.0001 0.4221,-0.1171 0.638,-0.3928 1.0816,-1.3777 0.8731,-2.421 2.144,-2.5537 0,-0.0001 1.29,-1.8613 -0.7589,-2.4103 -0.5864,-0.1573 -1.002,-0.2105 -1.3335,-0.2105 -0.3499,0 -0.6064,0.0592 -0.8724,0.1185 -0.2652,0.0592 -0.54,0.1185 -0.9261,0.1186 -0.1407,-0.0001 -0.2969,-0.008 -0.4722,-0.0266 -0.0994,-0.0107 -0.1945,-0.0157 -0.2866,-0.0157z"/>
  <path class="fil3" d="M140.339 44.6949l-7.5702 0c1.0308,-4.0005 3.1194,-7.5746 5.95,-10.4092 0.8562,-0.8583 1.78,-1.6483 2.7651,-2.3619 0.4686,-0.3403 0.9526,-0.6635 1.4477,-0.9674 0.711,0.0261 1.5619,0.2959 2.2869,1.1928 1.5929,1.9736 2.6553,0.9868 2.2759,3.2633 -0.3477,2.0825 0.1319,2.5142 1.2031,2.5142 0.0995,-0.0001 0.2048,-0.0037 0.3146,-0.0102 0.28,-0.0166 0.5717,-0.0296 0.8568,-0.0296 1.0286,-0.0001 1.9841,0.1679 2.102,0.9402 0.1519,0.9867 -3.9461,-0.0763 -4.8567,1.3659 -0.8045,1.2745 0.1105,3.3788 -1.5523,3.3788 -0.2188,0 -0.4819,-0.0363 -0.7987,-0.1157 -1.2944,-0.3235 -2.3502,-0.562 -3.1194,-0.562 -0.8539,-0.0001 -1.3542,0.2941 -1.4338,1.0925 -0.0279,0.2818 0.0243,0.5112 0.129,0.7083z"/>
  <path class="fil3" d="M172.858 63.4125c-0.3234,0 -0.6476,-0.0616 -0.9688,-0.1902 -2.8453,-1.1382 -0.7397,-4.2114 0.3986,-5.7479 1.1383,-1.5366 -1.7645,-0.8537 -3.8702,-2.2765 -1.9479,-1.3163 -0.0965,-4.6785 -1.5214,-4.6785 -0.1149,-0.0001 -0.252,0.0219 -0.4133,0.0688 -1.1037,0.3193 -2.326,0.6833 -3.4245,0.6833 -0.0029,0 -0.0051,0 -0.0081,0l0 -4.3262c0,-1.2435 -0.8966,-2.2504 -2.0032,-2.2504l-0.8738 0c-0.0213,-1.1526 1.4072,-1.825 3.1224,-1.9604 2.1623,-0.1708 1.878,-1.7073 4.5531,-1.9349 0.0863,-0.0074 0.1695,-0.0109 0.2505,-0.0109 1.1715,0 1.7859,0.7452 2.4313,1.4905 0.6455,0.7452 1.3217,1.4907 2.6177,1.4907 0.0899,-0.0001 0.182,-0.0036 0.2778,-0.0109 0.4223,-0.0326 0.7824,-0.0465 1.0882,-0.0465 1.836,-0.0001 1.738,0.5017 1.738,0.5017 0.0118,-0.0003 0.0235,-0.0004 0.0361,-0.0004 0.1997,-0.0001 0.3949,0.0443 0.5813,0.1301 0.5305,1.9304 0.8141,3.9645 0.8141,6.0633l0 0c0,1.4023 -0.1267,2.7761 -0.3691,4.1101 -0.5828,3.2005 -1.8323,6.1679 -3.6013,8.754l0 -0.0001c-0.2829,0.093 -0.5688,0.1414 -0.8554,0.1413z"/>
  <path class="fil3" d="M174.058 40.1755c-0.7273,0 -1.3219,-0.3837 -1.8987,-0.7673 -0.5761,-0.3838 -1.1347,-0.7674 -1.7889,-0.7674 -0.2475,0 -0.5098,0.0552 -0.7913,0.1863 -0.4125,0.1918 -0.7308,0.2747 -0.988,0.2747 -1.0653,0.0001 -1.086,-1.4214 -2.4305,-2.3997 -0.4045,-0.2941 -0.907,-0.3877 -1.4345,-0.3877 -0.4612,-0.0001 -0.9416,0.0717 -1.3917,0.1434 -0.4494,0.0716 -0.8694,0.1433 -1.209,0.1433 -0.5341,0 -0.8716,-0.177 -0.8215,-0.8097 0.1518,-1.8963 2.656,-1.3658 3.1872,-2.883 0.3544,-1.0118 1.5523,-1.1803 2.3112,-1.1803 0.3787,0 0.6483,0.0421 0.6483,0.0421 0.1378,-0.0524 0.2859,-0.0865 0.4413,-0.1003l0.0015 0c1.6364,1.1394 3.1165,2.4871 4.4014,4.0066 0.675,0.7979 1.2967,1.6425 1.8574,2.5291 0.3494,0.5519 0.6763,1.1189 0.9791,1.7016 -0.3919,0.1905 -0.7463,0.2683 -1.0733,0.2683z"/>
  <path class="fil3" d="M151.617 36.31c-0.8392,0 -1.6496,-1.8691 -2.6059,-2.9464 -1.1206,-1.2632 -0.6395,-2.426 0.7382,-2.426 0.0921,0 0.1871,0.0051 0.2866,0.0157 0.1754,0.0186 0.3315,0.0266 0.4722,0.0266 0.3862,-0.0001 0.6609,-0.0593 0.9261,-0.1186 0.2661,-0.0593 0.5224,-0.1185 0.8724,-0.1185 0.3316,0 0.747,0.0533 1.3335,0.2105 2.049,0.549 0.7589,2.4103 0.7589,2.4103 -1.2709,0.1326 -1.0624,1.1761 -2.144,2.5537 -0.2158,0.2757 -0.4281,0.3928 -0.638,0.3927z"/>
  <path class="fil4" d="M163.051 46.9453l0 71.0268c0,1.2422 -0.8966,2.2501 -2.0032,2.2501l-102.475 0c-1.1059,0 -2.0031,-1.0079 -2.0031,-2.2501l0 -71.0268c0,-1.2435 0.8972,-2.2504 2.003,-2.2504l102.475 0c1.1066,0 2.0032,1.0069 2.0032,2.2504z"/>
  <path class="fil5" d="M163.051 46.6979l0 5.3629 -106.482 0 0 -5.3629c0,-1.1069 0.8971,-2.0031 2.003,-2.0031l102.475 0c1.1066,0 2.0032,0.8962 2.0032,2.0031z"/>
  <path class="fil6" d="M59.8264 48.3778c0,-0.515 0.4175,-0.9325 0.9325,-0.9325 0.515,0 0.9325,0.4175 0.9325,0.9325 0,0.515 -0.4175,0.9325 -0.9325,0.9325 -0.515,0 -0.9325,-0.4175 -0.9325,-0.9325z"/>
  <path class="fil6" d="M63.5009 48.3778c0,-0.515 0.4174,-0.9325 0.9325,-0.9325 0.515,0 0.9325,0.4175 0.9325,0.9325 0,0.515 -0.4175,0.9325 -0.9325,0.9325 -0.5151,0 -0.9325,-0.4175 -0.9325,-0.9325z"/>
  <path class="fil6" d="M67.2682 48.3778c0,-0.515 0.4174,-0.9325 0.9325,-0.9325 0.515,0 0.9325,0.4175 0.9325,0.9325 0,0.515 -0.4175,0.9325 -0.9325,0.9325 -0.5151,0 -0.9325,-0.4175 -0.9325,-0.9325z"/>
  <polygon class="fil7" points="125.095,109.341 113.864,109.341 113.864,98.1106 125.095,98.1106 "/>
  <polygon class="fil5" points="114.708,108.058 118.025,102.077 120.464,105.405 121.682,104.073 124.263,108.058 "/>
  <path class="fil5" d="M119.606 101.219c0,-0.4738 0.3846,-0.8583 0.8583,-0.8583 0.4745,-0.0001 0.8583,0.3846 0.8583,0.8583 0.0001,0.4745 -0.3838,0.8583 -0.8583,0.8583 -0.4737,0 -0.8583,-0.3838 -0.8583,-0.8583z"/>
  <polygon class="fil7" points="141.865,93.7829 113.864,93.7829 113.864,77.5528 141.865,77.5528 "/>
  <polygon class="fil5" points="124.705,81.51 124.705,89.825 131.024,85.6675 "/>
  <path class="fil1" d="M154.676 65.4687c0,1.8314 -0.7309,3.4963 -1.9104,4.7037 -1.1788,1.2079 -2.8049,1.9557 -4.5937,1.9557l-75.7743 0c-3.8675,0 -7.0318,-2.9967 -7.0318,-6.6593 0,-1.8314 0.7903,-3.4962 2.0657,-4.703 1.274,-1.2074 3.0323,-1.9559 4.9661,-1.9559l75.7743 0c3.5777,0 6.5041,2.9962 6.5041,6.6588z"/>
  <path class="fil8" d="M154.676 65.4687c0,1.8314 -0.7309,3.4963 -1.9104,4.7037 -1.1788,1.2079 -2.8049,1.9557 -4.5937,1.9557l-13.7118 0 0 -13.3182 13.7118 0c3.5777,0 6.5041,2.9962 6.5041,6.6588z"/>
  <path class="fil0" d="M144.304 62.2165c-1.2562,0.9301 -1.5222,2.7089 -0.5917,3.9652 0.4502,0.6087 1.111,1.0054 1.8596,1.1172 0.7485,0.1116 1.4971,-0.0749 2.1056,-0.5253 1.2562,-0.9301 1.5214,-2.7089 0.5916,-3.9653 -0.9297,-1.2565 -2.709,-1.5219 -3.9651,-0.5918zm1.6937 5.6731c-0.1686,0 -0.3382,-0.0125 -0.5083,-0.0379 -0.8967,-0.1337 -1.6872,-0.6087 -2.2265,-1.3373 -1.1133,-1.5041 -0.7957,-3.6337 0.708,-4.7472l0 -0.0001c1.5045,-1.1133 3.6337,-0.7956 4.7477,0.7086 1.1132,1.5041 0.7957,3.6337 -0.7088,4.7472 -0.5901,0.4371 -1.2908,0.6667 -2.0121,0.6667z"/>
  <polygon class="fil0" points="139.931,69.3285 139.598,68.8792 143.321,66.1234 143.654,66.5727 "/>
  <path class="fil0" d="M138.471 70.0616l0 0c-0.1643,-0.2215 -0.1171,-0.534 0.1039,-0.698l2.1926 -1.6231c0.2217,-0.164 0.5341,-0.1173 0.6984,0.1042 0.1636,0.2216 0.1172,0.5341 -0.1046,0.6982l-2.1918 1.623c-0.2218,0.164 -0.5342,0.1173 -0.6985,-0.1043z"/>
  <path class="fil9" d="M87.7785 56.2914c-0.1437,0.1638 -0.1614,0.347 -0.0907,0.5425l0.0008 0.0027c0.1311,0.3617 0.5636,0.7657 1.0653,1.1692 0.0641,0.0518 0.1216,0.0989 0.171,0.1426 0.0132,0.0114 0.0265,0.0229 0.0383,0.0344 0.0103,0.0089 0.0199,0.0182 0.0294,0.0267 0.4686,0.4319 0.2918,0.5308 1.1332,1.4071 0.9593,0.9984 1.6194,1.0166 1.8073,0.9258 0.1592,-0.0775 -0.1636,-0.607 -0.5217,-1.2021 -0.0169,-0.0288 -0.0339,-0.0578 -0.0516,-0.0868 -0.0478,-0.0792 -0.095,-0.1595 -0.1421,-0.239 -0.4192,-0.7163 -0.3117,-1.0523 -0.2115,-2.118 0.0811,-0.8661 1.349,-4.8379 1.349,-4.8379l-1.8389 -0.3174c0,0 -0.5548,3.163 -1.1649,3.6499 -0.3263,0.2595 -0.691,0.2627 -1.0049,0.4551 -0.0221,0.0133 -0.0435,0.027 -0.0648,0.0411 -0.1783,0.118 -0.3603,0.2399 -0.5032,0.4041z"/>
  <path class="fil10" d="M87.7785 56.2914c-0.1437,0.1638 -0.1614,0.347 -0.0907,0.5425l0.0008 0.0027c0.1607,0.3613 0.582,0.7633 1.0668,1.1655 0.0641,0.0527 0.1194,0.1011 0.1695,0.1463 0.0132,0.0114 0.0265,0.0229 0.0383,0.0344 0.0103,0.0089 0.0199,0.0182 0.0294,0.0267 0.4686,0.4319 0.2918,0.5308 1.1332,1.4071 0.9593,0.9984 1.6194,1.0166 1.8073,0.9258 0.1592,-0.0775 -0.1636,-0.607 -0.5217,-1.2021 -0.1864,-0.0686 -1.0535,-0.4212 -1.7093,-1.2608 -0.5562,-0.7106 -0.9342,-1.616 -1.3129,-2.1719 -0.0412,-0.0079 -0.0663,-0.0125 -0.1075,-0.0203 -0.1783,0.118 -0.3603,0.2399 -0.5032,0.4041z"/>
  <path class="fil9" d="M102.603 55.1483c0.1134,0.5675 0.9224,0.4731 1.8264,0.2526 0.904,-0.2205 0.6888,0.0419 1.9752,-0.1 1.2864,-0.142 1.6762,-0.6214 1.7152,-0.8126 0.0354,-0.1698 -0.6004,-0.2298 -1.2819,-0.3086 -0.0855,-0.0096 -0.1717,-0.0202 -0.2579,-0.0309 -0.7699,-0.0968 -1.3328,-0.5937 -2.032,-1.0018 -0.6623,-0.3866 -1.6496,-1.961 -1.6496,-1.961l-1.7645 0.139c0,0 0.9253,1.4063 1.2834,2.0178 0.21,0.3595 0.1989,0.835 0.1724,1.2021 -0.0132,0.1995 -0.0265,0.4035 0.0133,0.6034z"/>
  <path class="fil10" d="M104.429 55.4008c0.904,-0.2204 0.6888,0.042 1.9752,-0.0999 1.2864,-0.142 1.6762,-0.6214 1.7152,-0.8126 0.0354,-0.1698 -0.6004,-0.2298 -1.2819,-0.3086l-0.0059 0.0131c0,0 -0.7722,0.5467 -1.8427,0.572 -0.8723,0.0208 -1.7969,-0.2294 -2.3996,-0.2199 -0.0132,0.1995 -0.0265,0.4035 0.0133,0.6034 0.1134,0.5675 0.9224,0.4731 1.8264,0.2525z"/>
  <path class="fil11" d="M95.8467 43.8667l-1.6503 4.4367 -2.155 5.793c0,0 -0.5843,0.0562 -1.1435,-0.1049 -0.515,-0.1491 -1.1059,-0.5388 -1.1059,-0.5388 0.0001,0 0.5997,-6.2206 1.7167,-9.7912 0.2859,-0.9166 0.6063,-1.6579 0.96,-2.0751 1.7292,-2.0424 3.378,2.2803 3.378,2.2803z"/>
  <path class="fil12" d="M94.1728 36.8193c-0.9386,-0.3031 -3.3876,-0.0059 -6.0444,0.4739 -0.7338,0.1326 -1.4735,-0.2028 -1.8603,-0.8407l0 -0.0001 -6.6853 -0.5243c0,0 -2.2074,4.8915 -1.0013,8.0091 0.1776,0.4582 0.5673,0.7443 1.1685,0.7541 0.0001,0 4.0397,0.0071 5.3319,0.0075 3.3243,0.0012 7.0368,-2.2829 7.5172,-2.3789 0.7862,-0.1568 1.0999,1.415 1.8853,3.0657 0.7855,1.6505 7.3846,7.3113 7.3846,7.3113 0,0 1.0145,0.0104 1.4337,-0.1467 0.4509,-0.1689 0.6159,-0.3883 0.6159,-0.3883 0.0001,-0.0001 -7.3101,-14.5559 -9.7458,-15.3426z"/>
  <path class="fil10" d="M85.5645 16.8202c-0.4958,-0.2956 -0.9799,-0.3409 -1.2768,-0.3326 -0.2063,0.0058 -0.4126,-0.0076 -0.6167,-0.0376 -2.5513,-0.3751 -4.089,3.3307 -4.1796,4.4505 -0.1657,2.0559 -1.2539,2.369 -2.7849,3.656 -3.0708,2.5807 -2.1713,5.5811 -0.4937,6.6964 1.0072,0.6692 2.7828,0.0009 2.7828,0.0009 0.0251,0.0175 4.8552,-2.6981 7.2364,-4.0082 3.5689,-0.5062 0.7662,-9.5712 -0.6675,-10.4254z"/>
  <path class="fil9" d="M84.2369 26.1292c0.011,0.0067 -1.1715,0.4098 -1.9613,0.0595 -0.7434,-0.3288 -1.3063,-1.552 -1.2952,-1.5527 0.3382,-0.0154 0.7095,-0.311 0.9961,-2.2509l0.1444 0.0517 2.421 0.872c0,0 -0.1761,0.777 -0.2896,1.5166 -0.0957,0.6209 -0.1473,1.2159 -0.0154,1.3038z"/>
  <path class="fil13" d="M84.5419 23.3088c0,0 -0.0973,0.4192 -0.2387,1.2023 -1.3903,-0.2509 -1.9871,-1.3224 -2.1823,-2.0743l2.421 0.872z"/>
  <path class="fil9" d="M84.9022 24.0801c0,0 -3.3132,-0.4458 -3.0038,-2.5044 0.3094,-2.0586 0.0906,-3.5026 2.2184,-3.305 2.1285,0.1975 2.4202,1.0447 2.4843,1.7569 0.0634,0.7123 -0.8296,4.1154 -1.6989,4.0525z"/>
  <path class="fil10" d="M86.4803 18.8991c0,0 -2.1211,1.8268 -3.5637,1.9736 -1.4425,0.1468 -1.9885,-0.3164 -1.9885,-0.3164 0,0 0.8502,-0.7056 1.3623,-1.8445 0.151,-0.3357 0.47,-0.5662 0.8369,-0.5978 1.03,-0.0885 2.9824,-0.1285 3.353,0.7851z"/>
  <path class="fil10" d="M85.1549 18.735c0,0 0.7095,0.6862 0.9327,1.195 0.2151,0.4911 0.2792,1.6654 0.1076,2.1317 0,-0.0001 1.1058,-2.149 0.4804,-3.1934 -0.6631,-1.1075 -1.5207,-0.1333 -1.5207,-0.1333z"/>
  <path class="fil14" d="M87.0248 31.01c-0.1024,6.7058 -0.0295,5.3046 -0.7633,5.9406 -0.1768,0.1531 -0.6734,0.2443 -1.3277,0.2873 -2.0562,0.1357 -5.67,-0.2042 -5.8078,-0.5843 -0.4737,-1.315 -0.1385,-1.7234 -0.5342,-3.7365 -0.0405,-0.2142 -0.0921,-0.4459 -0.1517,-0.6982 -0.3294,-1.3828 -0.6506,-1.8532 0.5209,-4.074 1.0624,-2.0117 2.1653,-3.6442 2.2647,-3.5853 2.7997,1.6634 3.0266,0.2662 3.0266,0.2662 0.0001,-0.0001 2.8226,2.9134 2.7725,6.1842z"/>
  <path class="fil12" d="M94.1964 48.3034l-2.155 5.793c0,0 -0.5843,0.0562 -1.1435,-0.1049 -0.515,-0.1491 -1.1059,-0.5388 -1.1059,-0.5388 0.0001,0 0.5997,-6.2206 1.7167,-9.7912l2.6877 4.6419z"/>
  <path class="fil14" d="M84.2524 24.8254c0,0 2.8814,0.4895 3.2188,1.7303 0.3383,1.2409 1.45,8.7721 1.45,8.7721 0,0 -0.8134,0.7933 -1.4898,0.1162 -0.6763,-0.677 -2.127,-7.0467 -2.127,-7.0467l-1.052 -3.5719z"/>
  <path class="fil15" d="M84.9338 37.2378c-2.0562,0.1358 -5.67,-0.2041 -5.8078,-0.5842 -0.4737,-1.315 -0.1385,-1.7234 -0.5342,-3.7365l0.9932 -2.7923c0,0 -0.165,3.1098 0.7515,3.928 0.9158,0.8183 3.7545,1.5803 4.2002,2.2639 0.2152,0.328 0.3566,0.657 0.3971,0.9211z"/>
  <path class="fil9" d="M82.5785 35.9291c0,0 2.029,-0.4509 2.3561,-0.2709 0.3271,0.1802 1.1272,0.8361 1.2274,1.0643 0.0995,0.2281 -0.7286,-0.1735 -0.9983,-0.2459 -0.1746,-0.0469 -0.6343,0.1127 -0.862,0.1885 -0.9577,0.3187 -1.5442,0.1544 -1.5442,0.1544l-0.179 -0.8904z"/>
  <path class="fil14" d="M81.2243 24.5581c0,0 -2.7246,0.1669 -3.6676,1.4817 -1.3276,1.8508 -3.9639,9.7398 -2.4549,10.7926 1.699,1.1856 7.7345,0.3127 7.7345,0.3127 0,-0.0001 0.2011,-0.9387 -0.0781,-1.3929 -0.2792,-0.4543 -4.8199,-1.1893 -5.0298,-1.3989 -0.2093,-0.2097 2.6213,-4.086 2.6213,-4.7148 0.0008,-0.6287 0.8746,-5.0804 0.8746,-5.0804z"/>
  <path class="fil9" d="M85.0326 36.2229c0,0 0.4251,0.5484 0.5643,0.614 0.1393,0.0654 0.2292,0.0491 0.2292,0.0491l-0.2859 -0.5156 -0.5076 -0.1475z"/>
  <path class="fil9" d="M84.9346 35.6582l1.2355 0.6006c0,0 -0.0523,0.086 -0.2048,0.079 -0.1517,-0.0071 -0.5356,-0.1474 -0.5356,-0.1474l-0.4951 -0.5322z"/>
  <polygon class="fil10" points="95.4872,37.0726 82.5785,37.0682 82.5785,37.3531 95.3723,37.3575 "/>
  <polygon class="fil10" points="85.5969,37.3541 95.3723,37.3575 98.3156,30.046 88.555,30.0426 "/>
  <path class="fil0" d="M92.9056 33.7004c0.0737,-0.257 -0.0745,-0.4654 -0.3316,-0.4655 -0.257,-0.0002 -0.5253,0.2082 -0.599,0.4652 -0.0736,0.257 0.0744,0.4654 0.3316,0.4655 0.2572,0 0.5253,-0.2082 0.599,-0.4652z"/>
  <path class="fil8" d="M86.2269 80.6796l-17.6503 0c-0.3674,0 -0.6652,-0.2976 -0.6652,-0.6645l0 -0.2807c0,-0.3669 0.2978,-0.6646 0.6652,-0.6646l17.6503 0c0.3669,0 0.6652,0.2977 0.6652,0.6646l0.0001 0.2807c0,0.3669 -0.2984,0.6646 -0.6653,0.6645z"/>
  <path class="fil5" d="M77.1699 86.2171l-8.7091 0c-0.3034,0 -0.5494,-0.246 -0.5494,-0.5496 0,-0.3036 0.246,-0.5496 0.5494,-0.5496l8.7091 -0.0001c0.3028,0 0.5489,0.2462 0.5489,0.5497 0,0.3035 -0.2461,0.5496 -0.5489,0.5496z"/>
  <path class="fil5" d="M83.8383 83.9125l-15.4156 0c-0.2824,0 -0.5113,-0.2291 -0.5113,-0.5113l0 -0.0766c0,-0.2822 0.2289,-0.5113 0.5113,-0.5113l15.4156 0c0.2822,0 0.5113,0.2291 0.5113,0.5113l0 0.0766c0,0.2822 -0.2291,0.5114 -0.5113,0.5113z"/>
  <path class="fil5" d="M100.703 83.9125l-14.3616 0c-0.2733,0 -0.4944,-0.221 -0.4944,-0.4943l0.0001 -0.1105c0,-0.2726 0.221,-0.4944 0.4943,-0.4944l14.3616 0c0.2727,0 0.4936,0.2218 0.4936,0.4944l0.0001 0.1105c0,0.2733 -0.2211,0.4944 -0.4937,0.4943z"/>
  <path class="fil5" d="M88.0319 86.2171l-8.7085 0c-0.3035,0 -0.5496,-0.246 -0.5496,-0.5496 0,-0.3036 0.2461,-0.5496 0.5496,-0.5496l8.7085 -0.0001c0.3036,0 0.5496,0.2462 0.5496,0.5497 0.0001,0.3035 -0.246,0.5496 -0.5496,0.5496z"/>
  <path class="fil8" d="M107.72 80.6796l-17.6505 0c-0.3677,0 -0.6653,-0.2976 -0.6653,-0.6645l0 -0.2807c0,-0.3669 0.2976,-0.6646 0.6652,-0.6646l17.6506 0c0.3669,0 0.6645,0.2977 0.6645,0.6646l0.0001 0.2807c0,0.3669 -0.2977,0.6646 -0.6646,0.6645z"/>
  <path class="fil8" d="M86.2269 109.513l-17.6503 0c-0.3674,0 -0.6652,-0.2984 -0.6652,-0.6653l0 -0.28c0,-0.3676 0.2978,-0.6653 0.6652,-0.6653l17.6503 0c0.3669,0 0.6652,0.2977 0.6652,0.6653l0.0001 0.28c0,0.3669 -0.2984,0.6653 -0.6653,0.6653z"/>
  <path class="fil5" d="M77.1699 115.049l-8.709 0c-0.3035,0 -0.5495,-0.2461 -0.5495,-0.5489 0,-0.3035 0.246,-0.5496 0.5495,-0.5496l8.709 0c0.3028,0 0.5489,0.2461 0.5489,0.5496 0,0.3028 -0.2461,0.5489 -0.5489,0.5489z"/>
  <path class="fil5" d="M83.8383 112.745l-15.4156 0c-0.2824,0 -0.5113,-0.2291 -0.5113,-0.5113l0 -0.0759c0,-0.2829 0.2289,-0.5113 0.5113,-0.5113l15.4156 0c0.2822,0 0.5113,0.2284 0.5113,0.5113l0 0.0759c0,0.2822 -0.2291,0.5113 -0.5113,0.5113z"/>
  <path class="fil5" d="M100.703 112.745l-14.3616 0c-0.2733,0 -0.4944,-0.221 -0.4944,-0.4943l0.0001 -0.1106c0,-0.2726 0.221,-0.4936 0.4943,-0.4936l14.3616 0c0.2727,0 0.4936,0.2211 0.4936,0.4936l0.0001 0.1106c0,0.2733 -0.2211,0.4943 -0.4937,0.4943z"/>
  <path class="fil5" d="M88.0319 115.049l-8.7085 0c-0.3035,0 -0.5496,-0.2461 -0.5496,-0.5489 0,-0.3035 0.2461,-0.5496 0.5496,-0.5496l8.7085 0c0.3036,0 0.5496,0.2461 0.5496,0.5496 0.0001,0.3028 -0.246,0.5489 -0.5496,0.5489z"/>
  <path class="fil8" d="M107.72 109.513l-17.6505 0c-0.3677,0 -0.6653,-0.2984 -0.6653,-0.6653l0 -0.28c0,-0.3676 0.2976,-0.6653 0.6652,-0.6653l17.6506 0c0.3669,0 0.6645,0.2977 0.6645,0.6653l0.0001 0.28c0,0.3669 -0.2977,0.6653 -0.6646,0.6653z"/>
  <path class="fil8" d="M86.2269 95.0958l-17.6503 0c-0.3674,0 -0.6652,-0.2977 -0.6652,-0.6645l0 -0.28c0,-0.3677 0.2978,-0.6653 0.6652,-0.6653l17.6503 0c0.3669,0 0.6652,0.2976 0.6652,0.6653l0.0001 0.2799c0,0.3669 -0.2984,0.6646 -0.6653,0.6646z"/>
  <path class="fil5" d="M77.1699 100.633l-8.709 0c-0.3035,0 -0.5495,-0.2461 -0.5495,-0.5496 0,-0.3029 0.246,-0.5489 0.5495,-0.5489l8.709 -0.0001c0.3028,0 0.5489,0.2462 0.5489,0.549 0,0.3035 -0.2461,0.5496 -0.5489,0.5496z"/>
  <path class="fil5" d="M83.8383 98.3287l-15.4156 0c-0.2824,0 -0.5113,-0.2291 -0.5113,-0.5113l0 -0.0767c0,-0.2821 0.2289,-0.5112 0.5113,-0.5112l15.4156 -0.0001c0.2822,0 0.5113,0.2292 0.5113,0.5114l0 0.0766c0,0.2821 -0.2291,0.5113 -0.5113,0.5113z"/>
  <path class="fil5" d="M100.703 98.3287l-14.3616 0c-0.2733,0 -0.4944,-0.221 -0.4944,-0.4944l0.0001 -0.1105c0,-0.2726 0.221,-0.4943 0.4943,-0.4943l14.3616 -0.0001c0.2727,0 0.4936,0.2218 0.4936,0.4944l0.0001 0.1105c0,0.2734 -0.2211,0.4944 -0.4937,0.4944z"/>
  <path class="fil5" d="M88.0319 100.633l-8.7085 0c-0.3035,0 -0.5496,-0.2461 -0.5496,-0.5496 0,-0.3029 0.2461,-0.5489 0.5496,-0.5489l8.7085 -0.0001c0.3036,0 0.5496,0.2462 0.5496,0.549 0.0001,0.3035 -0.246,0.5496 -0.5496,0.5496z"/>
  <path class="fil8" d="M107.72 95.0965l-17.6505 0c-0.3677,0 -0.6653,-0.2984 -0.6653,-0.6652l0 -0.28c0,-0.3677 0.2976,-0.6653 0.6652,-0.6653l17.6506 0c0.3669,0 0.6645,0.2976 0.6645,0.6653l0.0001 0.2799c0,0.3669 -0.2977,0.6653 -0.6646,0.6653z"/>
  <path class="fil9" d="M58.1492 87.3422c0,0 0.199,-0.448 0.328,-0.6602 0.1289,-0.2114 0.6795,-0.8325 0.7733,-0.6918 0.0938,0.14 0.4687,1.0867 0.2695,1.352 -0.1992,0.2644 0.0129,0.7257 -0.9779,1.0049l-0.3929 -1.0049z"/>
  <path class="fil15" d="M47.1398 84.5152c0,0 5.0714,4.2334 7.0488,3.8415 1.5463,-0.3065 3.9195,-1.1199 3.9195,-1.1199l0.4745 1.2134c0,0 -2.1282,2.8874 -4.3471,2.9058 -3.4684,0.0302 -6.0308,-1.5015 -6.0308,-1.5015l-1.0649 -5.3393z"/>
  <path class="fil16" d="M38.2456 129.167c0,0 0.1472,2.3753 0.6068,2.4092 0.061,0.0044 2.3303,0.0044 2.3303,0.0044l2.8969 -0.017c0,0 -0.0191,-0.6977 -0.8658,-0.845 -0.8468,-0.1481 -2.264,-0.7427 -2.777,-1.8618 -0.5396,-1.1774 -2.1912,0.3102 -2.1912,0.3102z"/>
  <path class="fil12" d="M38.0787 129.332c0,0 0.8806,0.2947 1.5681,0.2947 0.7669,0 1.4639,-0.2092 1.4639,-0.2092 0.0001,0 0.1658,-1.6032 1.0781,-5.136 0.4784,-1.8514 1.1615,-4.2319 2.1332,-7.19 2.6871,-8.1765 3.5042,-12.9596 3.5788,-13.4119 0.004,-0.0244 0.0055,-0.0361 0.0055,-0.0361l-0.0087 -0.0037 -8.2609 -3.6271c0,0 1.0211,11.268 -0.2816,15.5935 -0.1825,0.6041 -0.3387,1.3085 -0.4728,2.0718 -0.8227,4.6983 -0.8036,11.654 -0.8036,11.654z"/>
  <path class="fil11" d="M42.1888 124.282c0.4784,-1.8514 1.1615,-4.2319 2.1332,-7.19 2.6871,-8.1765 3.5042,-12.9596 3.5788,-13.4119 -0.0008,-0.0141 -0.0016,-0.0265 -0.0032,-0.0398l-8.2609 -3.6271c0,0 1.0211,11.268 -0.2816,15.5935 -0.1825,0.6041 2.8337,8.6753 2.8337,8.6753z"/>
  <path class="fil16" d="M44.6978 129.167c0,0 0.1472,2.3753 0.6066,2.4092 0.0612,0.0044 2.3304,0.0044 2.3304,0.0044l2.8969 -0.017c0,0 -0.019,-0.6977 -0.8658,-0.845 -0.8466,-0.1481 -2.264,-0.7427 -2.7769,-1.8618 -0.5396,-1.1774 -2.1912,0.3102 -2.1912,0.3102z"/>
  <path class="fil12" d="M49.3814 100.278c0,0 0.1072,7.302 -1.1561,16.2676 -1.2633,8.9656 -0.8351,12.7709 -0.8351,12.7709 0,0 -0.868,0.2815 -1.2184,0.3102 -0.8924,0.0729 -1.8075,-0.2092 -1.8075,-0.2092 0,0 -1.8083,-8.9686 -1.2899,-13.4562 0.5186,-4.4876 -2.4761,-15.399 -2.4761,-15.399l8.7831 -0.2843z"/>
  <path class="fil9" d="M43.5238 83.1905l1.6125 1.0572 1.4688 -0.4147c0.2685,-0.3831 0.3396,-1.1221 0.3435,-1.7616 0.004,-0.6344 -0.0576,-1.1722 -0.0576,-1.1722l-2.1756 -0.9607 -0.8117 -0.3573c0.0023,0.0125 0.0631,0.666 0.0718,0.7618 0.1516,1.6952 -0.4517,2.8475 -0.4517,2.8475z"/>
  <path class="fil14" d="M49.4184 102.308c-2.0071,1.9384 -9.6031,1.612 -10.0712,-0.5231 -0.4674,-2.1351 0.5105,-18.175 3.939,-19.1829 0.7115,-0.2093 4.5151,1.0204 4.5151,1.0204 0,0 0.5968,1.5612 0.9882,3.5489 0.0759,0.3868 0.2978,4.4862 0.4637,8.321 0.0773,1.7932 0.1429,3.5298 0.1764,4.8007 0.0305,1.1906 0.0319,1.973 -0.0112,2.015z"/>
  <path class="fil17" d="M44.1382 80.3732c0.4413,0.7463 1.9899,1.3991 2.8104,1.6982 0.004,-0.6344 -0.0576,-1.1722 -0.0576,-1.1722l-2.1756 -0.9607c-0.4809,-0.0059 -0.7739,0.1009 -0.5772,0.4347z"/>
  <path class="fil9" d="M47.7116 80.7666c0,0 -3.5054,1.0933 -4.1528,-1.1 -0.6473,-2.1933 -1.5357,-3.5298 0.675,-4.3203 2.2107,-0.7913 2.8946,-0.0833 3.2887,0.5967 0.3942,0.6793 1.0842,4.4825 0.1891,4.8236z"/>
  <path class="fil18" d="M47.3848 75.7316c0,0 -0.2235,2.5521 -0.7513,2.4416 -0.5279,-0.1112 -1.109,-0.3477 -1.0317,0.4214 0.0773,0.7692 -0.5133,2.0887 -1.2745,2.0851 -1.6324,-0.0067 -3.4061,-4.1951 -2.9592,-4.9901 1.2895,-2.2914 7.8805,-2.754 6.0167,0.042z"/>
  <path class="fil15" d="M46.8692 82.6571c-0.0452,-0.0191 -2.6096,-1.1692 -2.9094,-1.0705 -0.2999,0.0995 -0.6738,1.0153 -0.6738,1.0153l4.5154 1.0211c0,0 -0.3554,-0.7228 -0.9322,-0.9659z"/>
  <path class="fil19" d="M62.8337 95.0796l-14.3746 13.5342c-0.2817,0.2653 -0.637,0.3492 -0.7895,0.1879l-0.4852 -0.5157c-0.1525,-0.1621 -0.0468,-0.5113 0.235,-0.7766l14.3746 -13.5342c0.2817,-0.2653 0.637,-0.3492 0.7895,-0.1879l0.4852 0.5157c0.1525,0.1621 0.0467,0.5114 -0.235,0.7766z"/>
  <path class="fil5" d="M54.767 102.675l-6.3079 5.939c-0.2817,0.2653 -0.637,0.3492 -0.7895,0.1879l-0.4852 -0.5157c-0.1525,-0.1621 -0.0468,-0.5113 0.235,-0.7766l6.3078 -5.939 1.0398 1.1044z"/>
  <path class="fil19" d="M62.7501 79.5715c2.4811,-2.6375 6.0165,-3.6889 9.3363,-3.1135 1.9346,0.3345 3.7949,1.2209 5.3318,2.6664 4.1745,3.9269 4.3741,10.4943 0.4472,14.6681 -1.4463,1.5368 -3.2491,2.5344 -5.1583,2.9868 -3.2795,0.7765 -6.8726,-0.0568 -9.5101,-2.5389 -4.1742,-3.9269 -4.3748,-10.4936 -0.4469,-14.6688zm-3.2203 10.3986c0.5519,1.8183 1.5738,3.5217 3.0576,4.9178 4.5319,4.2636 11.6627,4.0456 15.9263,-0.4855 4.207,-4.4729 4.0507,-11.4743 -0.3094,-15.7548 -0.0582,-0.0575 -0.1172,-0.1149 -0.1768,-0.1709 -4.5315,-4.263 -11.6615,-4.0471 -15.925,0.4847 -2.8681,3.0487 -3.7091,7.2726 -2.5727,11.0087z"/>
  <path class="fil20" d="M70.3046 97.0592c-0.1492,0 -0.2983,-0.0029 -0.4475,-0.0095 -1.9421,-0.0833 -3.8677,-0.7095 -5.5317,-1.8861 -0.3918,-0.2771 -0.769,-0.585 -1.1284,-0.9232 -4.1742,-3.9269 -4.3748,-10.4936 -0.4469,-14.6688 0.1412,-0.1503 0.2859,-0.2955 0.4338,-0.4355 1.9891,-1.8809 4.554,-2.8306 7.1245,-2.8306 0.5947,0 1.1896,0.0509 1.7779,0.1525 1.8256,0.3161 3.5858,1.1229 5.0689,2.4269 0.0685,0.0604 0.137,0.1223 0.204,0.1849l-8.7826 0c-0.3674,0 -0.6652,0.2977 -0.6652,0.6646l0 0.2807c0,0.3669 0.2978,0.6646 0.6652,0.6646l10.1987 -0.0001c0.4767,0.6719 0.8649,1.3889 1.1641,2.1337l-11.5167 0c-0.2824,0 -0.5113,0.2291 -0.5113,0.5113l0 0.0766c0,0.2822 0.2289,0.5114 0.5113,0.5114l11.8873 -0.0001c0.109,0.3971 0.1952,0.7994 0.2563,1.2054l-1.2429 -0.0001c-0.3035,0 -0.5496,0.2462 -0.5496,0.5497 0,0.3035 0.2461,0.5496 0.5496,0.5496l1.3505 0c0.1157,2.5743 -0.7228,5.189 -2.5308,7.2689l-9.5665 0c-0.3674,0 -0.6652,0.2976 -0.6652,0.6653l0 0.2799c0,0.3669 0.2978,0.6646 0.6652,0.6646l7.8072 0c-1.1228,0.8134 -2.3754,1.3748 -3.6767,1.6835 -0.7884,0.1864 -1.5955,0.28 -2.4025,0.28zm-1.8438 -11.9415c-0.3034,0 -0.5494,0.2462 -0.5494,0.5497 0,0.3035 0.246,0.5496 0.5494,0.5496l8.7091 0c0.3028,0 0.5489,-0.246 0.5489,-0.5496 0,-0.3036 -0.2461,-0.5496 -0.5489,-0.5496l-8.7091 -0.0001z"/>
  <path class="fil21" d="M78.7753 80.6796l-10.1987 0c-0.3674,0 -0.6652,-0.2976 -0.6652,-0.6645l0 -0.2807c0,-0.3669 0.2978,-0.6646 0.6652,-0.6646l8.7827 0c0.0199,0.0177 0.0397,0.0362 0.0589,0.0546 0.0774,0.0729 0.154,0.1466 0.2284,0.221 0.0022,0.0029 0.0044,0.0051 0.0066,0.0074 0.0022,0.0014 0.003,0.0029 0.0052,0.0044 0.414,0.4155 0.7868,0.8583 1.1169,1.3224z"/>
  <path class="fil22" d="M77.1699 86.2171l-8.7091 0c-0.3034,0 -0.5494,-0.246 -0.5494,-0.5496 0,-0.3036 0.246,-0.5496 0.5494,-0.5496l8.7091 -0.0001c0.3028,0 0.5489,0.2462 0.5489,0.5497 0,0.3035 -0.2461,0.5496 -0.5489,0.5496z"/>
  <path class="fil22" d="M80.31 83.9125l-11.8873 0c-0.2824,0 -0.5113,-0.2291 -0.5113,-0.5113l0 -0.0766c0,-0.2822 0.2289,-0.5113 0.5113,-0.5113l11.5167 0c0.1444,0.3603 0.2674,0.7272 0.3706,1.0992z"/>
  <path class="fil22" d="M80.6739 86.2171l-1.3505 0c-0.3035,0 -0.5496,-0.246 -0.5496,-0.5496 0,-0.3036 0.2461,-0.5496 0.5496,-0.5496l1.2429 -0.0001c0.0406,0.2668 0.0708,0.535 0.0907,0.8032 0.0066,0.0987 0.0125,0.1974 0.0169,0.2961z"/>
  <path class="fil21" d="M76.3838 95.0958l-7.8072 0c-0.3674,0 -0.6652,-0.2977 -0.6652,-0.6645l0 -0.28c0,-0.3677 0.2978,-0.6653 0.6652,-0.6653l9.5666 0c-0.0906,0.1031 -0.1828,0.2063 -0.2778,0.3065 -0.4605,0.4891 -0.9571,0.9239 -1.4816,1.3033z"/>
  <path class="fil23" d="M70.3057 97.06c-0.1496,0 -0.2991,-0.0037 -0.4486,-0.0103 0.1492,0.0066 0.2983,0.0096 0.4475,0.0096 0.807,-0.0001 1.614,-0.0936 2.4025,-0.28 1.3014,-0.3087 2.5539,-0.8701 3.6767,-1.6835 0.5246,-0.3795 1.0211,-0.8141 1.4816,-1.3033 0.095,-0.1002 0.1871,-0.2034 0.2777,-0.3065 1.8081,-2.0799 2.6465,-4.6946 2.5308,-7.2689 -0.0044,-0.0987 -0.0103,-0.1974 -0.0169,-0.2961 0.2048,2.7974 -0.7184,5.6678 -2.7916,7.8715 -1.4455,1.5368 -3.2491,2.5344 -5.1586,2.9875 -0.7879,0.1864 -1.5945,0.28 -2.4011,0.28zm-5.9803 -1.8964c-0.3918,-0.2771 -0.7693,-0.585 -1.1288,-0.9232 -4.174,-3.9269 -4.3743,-10.4944 -0.4468,-14.6688 0.1414,-0.1503 0.2862,-0.2955 0.4341,-0.4355 -0.1479,0.14 -0.2926,0.2852 -0.4338,0.4355 -3.9279,4.1752 -3.7273,10.7419 0.4469,14.6688 0.3595,0.3382 0.7366,0.6462 1.1284,0.9232zm13.333 -15.8065c-0.0022,-0.0014 -0.003,-0.0029 -0.0052,-0.0043 0.0015,0.0014 0.0037,0.0029 0.0052,0.0044zm-0.0118 -0.0118c-0.0744,-0.0744 -0.1511,-0.1481 -0.2284,-0.221 -0.0192,-0.0185 -0.0391,-0.0369 -0.059,-0.0546 -0.067,-0.0626 -0.1355,-0.1245 -0.204,-0.1849 0.0884,0.0781 0.176,0.1577 0.263,0.2395 0.0774,0.0729 0.154,0.1466 0.2284,0.221z"/>
  <path class="fil15" d="M49.4296 100.293c-7.9205,-5.6436 -7.2619,-13.1755 -7.2619,-13.1755 2.8949,1.6334 5.7675,5.2436 7.0855,8.3748 0.0773,1.7932 0.1429,3.5298 0.1764,4.8007z"/>
  <path class="fil9" d="M57.2469 97.7231c0.5585,-0.129 0.9336,-0.5518 1.0115,-0.6255 0,0 0.2382,0.0162 -0.039,0.5245 -0.0232,0.0428 -0.0747,0.1518 -0.1136,0.2292 -0.0159,0.0316 0.0062,0.0678 0.0414,0.0707 0.3224,0.0243 0.6463,-0.1031 1.2673,0.0265 0.0857,0.0177 0.1106,0.2233 0.1073,0.3102 -0.0056,0.1481 0.0051,0.3146 -0.1669,0.5415 -0.0999,0.1319 -0.3792,0.2741 -1.0008,0.5239 -0.2368,0.095 -0.9139,0.0235 -1.5486,-0.1946l-0.507 -0.235 0.1572 -0.9423 0.1273 0.0265c0.2024,0.0427 0.4529,-0.2041 0.6639,-0.2556z"/>
  <path class="fil14" d="M44.6258 83.623c0,0 -7.1168,1.3549 2.0937,11.6607 1.4732,1.6481 9.4318,3.7943 9.4318,3.7943 0,0 0.8072,-0.6867 0.4002,-1.2429 0,0 -5.4797,-3.9793 -6.6853,-4.6114 -0.5424,-0.2851 -2.1051,-6.3516 -2.9893,-7.8126 -0.8842,-1.461 -2.2511,-1.7881 -2.2511,-1.7881z"/>
  <path class="fil9" d="M58.3421 87.4667c0,0 0.2329,-0.445 0.2783,-0.6793 0.0454,-0.2343 0.3385,-0.9188 0.4593,-1.0396 0.0484,-0.0486 0.2077,0.014 0.2265,0.2218 0.0082,0.0898 -0.0361,0.2542 -0.1143,0.4501 -0.1273,0.3183 -0.1063,0.7501 -0.1506,0.8945 -0.1102,0.358 -0.6992,0.1525 -0.6992,0.1525z"/>
  <polygon class="fil10" points="153.497,73.883 149.468,74.8202 147.476,78.4458 145.954,70.184 "/>
  <polygon class="fil10" points="151.822,77.4209 151.235,77.866 148.661,74.4695 149.248,74.0245 "/>
  <path class="fil24" d="M140.212 112.069c0,0 1.6658,-1.9561 0.0928,-3.1894 0,0 -1.1479,-0.6904 -2.0821,-0.6314 0.0001,0 1.3306,2.2161 0.9033,2.4386 -0.428,0.2218 -1.3056,-2.5764 -1.3056,-2.5764 0,0 -2.6081,-0.2446 -3.4458,0.1613 0.0001,0 2.2353,1.8176 1.766,1.9274 -0.4692,0.1098 -2.8829,-1.6732 -2.8829,-1.6732 0.0001,0 -2.4262,0.4207 -2.2921,1.9016 0.1342,1.4801 0.9718,1.9347 1.3395,1.8942 0.3677,-0.0405 2.5153,-0.8686 2.5631,-0.5673 0.0473,0.3006 -1.2436,1.2893 -2.1498,1.3379 0,0 1.7174,1.8817 2.8527,1.3336 1.1354,-0.5482 1.2297,-1.4116 1.9377,-1.738 0.7081,-0.3257 1.3129,-0.3272 1.0211,0.0044 -0.291,0.3308 -1.5729,0.6557 -1.9767,1.3748 -0.403,0.7183 -0.7647,1.2031 0.4111,1.0219 1.1759,-0.1805 3.0856,-1.0477 3.1666,-2.0335 0.0811,-0.9865 0.0811,-0.9865 0.0811,-0.9865z"/>
  <path class="fil24" d="M132.159 110.463c0,0 6.5917,-0.2756 8.0535,1.6054 0,0 0.3249,0.9637 1.318,1.8382l0.1562 0.4207c0,0 -1.1464,-1.2009 -1.5553,-1.2724 0.0001,0 0.6322,-2.3377 -7.9724,-2.5919z"/>
  <path class="fil24" d="M141.53 113.907c0,0 1.4189,1.0418 1.5228,2.9117l-0.2571 0.0235c0,0 -0.4576,-1.9317 -1.2768,-2.6854 -0.8193,-0.753 0.011,-0.2498 0.0111,-0.2498z"/>
  <path class="fil25" d="M149.051 106.91c0,0 -2.6649,-1.4809 -1.4301,-3.5062 0,0 0.9895,-1.2444 2.0519,-1.5671 0,0 -0.5578,3.0163 0.0103,3.0855 0.5673,0.0686 0.3794,-3.406 0.3794,-3.406 0,0 2.7968,-1.3564 3.8967,-1.2532 0.0001,0 -1.7284,2.9485 -1.1611,2.8763 0.5673,-0.073 2.5079,-3.0583 2.5079,-3.0583 0,0 2.8704,-0.5408 3.3368,1.1597 0.4664,1.7011 -0.2755,2.5543 -0.7007,2.6619 -0.425,0.1083 -3.1555,0.081 -3.0833,0.4354 0.0715,0.3544 1.9178,0.9158 2.9448,0.5938 0.0001,0 -1.1257,2.8049 -2.6155,2.6678 -1.4896,-0.137 -1.9538,-1.058 -2.8763,-1.1257 -0.9224,-0.0678 -1.595,0.1827 -1.1331,0.4295 0.462,0.246 2.0217,0.0744 2.768,0.7051 0.7471,0.6306 1.3512,1.0189 -0.031,1.307 -1.3821,0.288 -3.865,0.1186 -4.3652,-0.9431 -0.4995,-1.0624 -0.4996,-1.0624 -0.4995,-1.0624z"/>
  <path class="fil24" d="M157.333 101.777c0,0 -7.4399,2.435 -8.282,5.133 0.0001,0 0.0391,1.2054 -0.7014,2.5905l0.0023 0.5319c0,0 0.7743,-1.811 1.1987,-2.06 0,0 -1.674,-2.3355 7.7824,-6.1954z"/>
  <path class="fil24" d="M148.35 109.5c0,0 -1.1427,1.7475 -0.4811,3.8687l0.2948 -0.0803c0,0 -0.294,-2.337 0.3035,-3.5151 0.5968,-1.1781 -0.1172,-0.2733 -0.1172,-0.2733z"/>
  <path class="fil25" d="M144.813 104.869c0,0 3.4995,-1.9745 1.8551,-4.6335 0,0 -1.3144,-1.6326 -2.7179,-2.0482 0,0 0.7603,3.9704 0.0132,4.0662 -0.7477,0.0965 -0.5289,-4.4854 -0.5289,-4.4854 0,0 -3.6986,-1.7645 -5.147,-1.6201 0,0 2.303,3.8724 1.5545,3.7818 -0.7485,-0.0914 -3.3316,-4.0095 -3.3316,-4.0095 0,0 -3.7884,-0.6896 -4.3889,1.5561 -0.6012,2.2456 0.3846,3.3647 0.946,3.5033 0.5614,0.1385 4.1605,0.0803 4.0684,0.5481 -0.092,0.4678 -2.5205,1.223 -3.8776,0.8068 0,-0.0001 1.5074,3.6882 3.4702,3.4951 1.9627,-0.1937 2.5668,-1.4109 3.7817,-1.5081 1.215,-0.0973 2.1042,0.2269 1.4979,0.5562 -0.6064,0.3294 -2.6641,0.1157 -3.6433,0.9534 -0.9791,0.8377 -1.7719,1.3542 0.0523,1.7225 1.8242,0.3684 5.0954,0.1238 5.746,-1.2805 0.6499,-1.4042 0.6498,-1.4042 0.6499,-1.4042z"/>
  <path class="fil24" d="M133.853 98.1725c0,0 9.8268,3.1474 10.9599,6.6964 0.0001,0 -0.042,1.5892 0.9453,3.4097l0.0022 0.7007c0,0 -1.0359,-2.3805 -1.5973,-2.7062 0,0 2.1867,-3.0921 -10.3101,-8.1006z"/>
  <path class="fil24" d="M145.758 108.279c0,0 1.5214,2.2936 0.6675,5.0947l-0.3898 -0.1032c0,0 0.3684,-3.0833 -0.4288,-4.6312 -0.7971,-1.5479 0.1511,-0.3603 0.1511,-0.3603z"/>
  <path class="fil12" d="M172.882 131.758l-35.931 0c-5.0092,-5.7305 -3.6868,-13.4716 2.9625,-20.0007 0.8363,-0.8208 2.4401,-1.4028 4.1693,-1.8139 3.188,-0.7567 6.8025,-0.9313 6.8305,-0.946 0.0103,-0.0044 1.9104,-1.5443 3.0531,-2.9286 3.5512,-4.299 6.5719,-3.9299 6.5719,-3.9299 3.6197,-0.7044 6.7074,-0.9106 8.9965,0.3632l0 0.0015c2.1205,1.1818 3.5563,3.6359 4.0934,8.1463 0.1018,0.8525 0.1717,1.7793 0.2078,2.7843 0.1312,3.6601 0.8524,6.9166 1.2812,9.6736l0.0008 0c0.6205,3.9939 1.0594,7.0309 -2.236,8.6502z"/>
  <path class="fil11" d="M167.741 107.101c-2.1962,1.1965 -2.4394,5.1375 -5.8764,6.1556 -3.4376,1.0182 -9.2728,0.9254 -12.583,4.5156 -3.1932,3.4635 -6.7149,-5.3488 -5.1986,-7.828 3.188,-0.7567 6.8025,-0.9313 6.8305,-0.946 0.0103,-0.0044 1.9104,-1.5443 3.0531,-2.9286 3.5512,-4.299 6.5719,-3.9299 6.5719,-3.9299 3.6197,-0.7044 6.7074,-0.9106 8.9965,0.3632l0 0.0015c2.522,2.6052 0.4023,3.4001 -1.794,4.5966z"/>
  <path class="fil26" d="M143.969 124.14c0,0 0.6321,1.6776 0.501,2.3016 -0.1312,0.6233 0.0877,1.8301 -0.1658,2.3716 -0.2534,0.5408 -0.7058,1.3269 -0.2682,1.5244 0.1658,0.0751 2.0909,-1.4279 2.2007,-1.8699 0.1091,-0.4421 0.1909,-1.7461 0.5578,-2.4542 0.3677,-0.7087 0.0559,-1.2782 -0.4789,-1.5368 -0.5349,-0.2586 -1.2835,-1.6813 -1.2835,-1.6813l-1.0631 1.3446z"/>
  <path class="fil10" d="M154.259 108.234c0,0 -10.5128,-0.6491 -11.8677,0.7449 -1.4271,1.469 0.8981,15.9198 0.8981,15.9198 0.0001,0 2.8512,0.0818 3.0752,-0.6734 0.0001,0 -0.5349,-6.9962 -0.0899,-8.2067 0.445,-1.2098 0.1629,-2.8844 0.1629,-2.8844 0,0 5.5779,0.8325 7.3469,0.4081 1.7698,-0.4236 0.4745,-5.3083 0.4745,-5.3083z"/>
  <path class="fil9" d="M156.806 100.518c-0.0008,0.0088 -1.5495,3.616 -2.3053,4.0006 -0.7559,0.3846 -3.4916,3.5305 -4.0787,3.476 -0.5865,-0.0545 0.6063,0.6425 0.6063,0.6425 0,0 4.8633,-2.3724 5.1418,-2.5109 0.2778,-0.1378 1.7424,-2.5484 1.9429,-3.7722 0.2012,-1.2238 -1.3071,-1.836 -1.307,-1.836z"/>
  <path class="fil26" d="M142.028 126.91c0,0 -0.5991,1.6894 -1.1015,2.0814 -0.5025,0.3919 -1.114,1.4551 -1.657,1.7048 -0.5422,0.2498 -1.3962,0.5585 -1.1891,0.9917 0.0788,0.1643 2.5197,0.2586 2.8881,-0.0088 0.3691,-0.2675 1.2724,-1.2105 2.0106,-1.5148 0.7375,-0.305 0.8671,-0.9408 0.6247,-1.4831 -0.2415,-0.543 0.1047,-2.1123 0.1047,-2.1123l-1.6805 0.3411z"/>
  <path class="fil18" d="M159.973 98.9159c-0.2247,-0.2594 5.4682,0.3802 6.2255,3.2881 0.0001,0 4.3727,-3.4465 0.3618,-6.3508 -1.3887,-1.0057 -1.5288,-2.0791 -1.7299,-3.0612 -0.2012,-0.9829 -1.5877,-3.8054 -3.991,-2.4034 0,0 -1.0985,0.0052 -1.7933,0.6079 -1.5803,1.3696 -3.3044,10.0751 0.9269,7.9194z"/>
  <path class="fil27" d="M158.865 108.744c0,0 -11.4294,1.1663 -12.4336,2.3334 -1.0042,1.167 -4.9473,16.339 -4.9473,16.339 0,0 1.167,0.6499 2.2272,0.0413 0.0001,0 3.0222,-5.147 4.3594,-6.7634 1.3373,-1.6158 1.836,-6.6043 2.0571,-6.6559 0.221,-0.0509 7.3837,0.9976 9.8497,-0.8967 2.4659,-1.8942 -1.1125,-4.3977 -1.1125,-4.3977z"/>
  <path class="fil26" d="M165.226 98.37c0,0 -2.7268,-1.2172 -6.1844,-0.6587 -0.7058,0.1142 -1.3423,0.3463 -1.847,1.1788 -0.7139,1.1759 -1.0477,1.8073 -1.0477,1.8073 0,-0.0001 0.0692,0.5444 1.044,0.9784 -0.2652,0.9747 0.2438,2.6766 -0.224,3.3375 -0.4686,0.6609 -3.3729,2.2994 -3.5158,3.2101 -0.2637,1.6739 4.965,4.7064 6.524,4.3822 4.4854,-0.9335 7.5282,-12.9544 5.2509,-14.2356z"/>
  <path class="fil18" d="M163.682 94.9219c0,0 0.5371,-1.0572 0.6086,-1.9251 0.0501,-0.6197 -0.4738,-2.8483 -2.712,-2.309 0,0 -0.6528,0.1274 -1.2334,0.6048 -0.4611,0.3795 -1.1044,1.1649 -0.1223,3.0605l0.269 0.6462 3.1901 -0.0774z"/>
  <path class="fil9" d="M160.614 98.49c-0.2262,0.2387 -0.1371,1.033 0.9224,0.9733 0.6955,-0.0398 2.1859,-0.8996 2.0459,-1.4941 -0.0662,-0.2822 -0.6011,-1.0109 -0.7271,-2.687l-0.1267 0.0353 -2.1226 0.5976c0,0 0.1024,0.6749 0.1539,1.3144 0.0443,0.5363 -0.0523,1.1618 -0.1458,1.2605z"/>
  <path class="fil28" d="M160.606 95.9151c0,0 0.1024,0.6749 0.1539,1.3144 1.2047,-0.1298 1.7557,-1.2805 1.9687,-1.9119l-2.1226 0.5975z"/>
  <path class="fil9" d="M160.561 96.8964c0,0 2.7775,-0.6992 2.3148,-2.4224 -0.4619,-1.7233 -0.4148,-2.9743 -2.2081,-2.6008 -1.7932,0.3743 -1.9605,1.1236 -1.9457,1.7366 0.0147,0.6129 1.1044,3.4244 1.839,3.2866z"/>
  <path class="fil18" d="M159.397 92.1708c0,0 0.9328,1.7771 2.6929,1.968 1.03,0.1119 1.3121,0.7898 1.3121,0.7898 0.0001,-0.0001 -0.3094,-1.9392 -0.8273,-3.1261 0,0 -2.866,-0.7478 -3.1777,0.3683z"/>
  <path class="fil18" d="M159.716 92.4059c0,0 -0.6086,0.6211 -0.7957,1.0587 -0.2777,0.6483 0.2645,2.0136 0.4885,2.3083 0.0001,0 -1.2938,-2.1933 -0.862,-3.143 0.4583,-1.0072 1.1692,-0.224 1.1692,-0.224z"/>
  <path class="fil9" d="M151.248 108.407c0,0 -0.5534,0.5865 -0.6204,0.6181 -0.3654,0.171 -0.8281,0.0715 -1.0513,0.1275 -0.2233,0.056 -0.185,-0.0825 -0.0199,-0.1952 0.1643,-0.1135 0.5695,-0.0693 0.4044,-0.1105 -0.1657,-0.0406 -1.0602,-0.2071 -1.3969,-0.1172 -0.5333,0.1429 -0.9541,-0.0243 -0.9872,-0.0788 -0.0331,-0.0546 1.2171,-0.6661 1.5744,-0.6454 0.3574,0.0199 1.3844,-0.0295 1.3844,-0.0295l0.7125 0.431z"/>
  <path class="fil9" d="M166.167 99.45c0,0 3.4472,7.7817 2.4895,8.9244 -0.9505,1.1346 -7.5842,-0.2431 -7.5842,-0.2431l0.2048 -0.7228c0,0 4.8781,-0.2984 5.2258,-0.3971 0.4996,-0.1415 -2.4718,-5.5994 -2.4718,-5.5994l2.1359 -1.962z"/>
  <path class="fil26" d="M164.881 98.2425c0.0826,0.0014 1.1125,0.3396 1.853,1.8036 0.7272,1.4381 0.9917,2.1366 0.9917,2.1366 0,0 -3.2226,2.4983 -4.5046,1.5796 -1.2819,-0.9195 0.4774,-5.5508 1.6599,-5.5198z"/>
  <path class="fil9" d="M161.846 107.373c0,0 -0.554,-0.3595 -0.778,-0.5562 -0.224,-0.196 -1.5221,-0.3559 -1.5214,-0.2247 0.0008,0.1311 0.7559,0.3094 0.8384,0.4406 0.0826,0.1311 0.5445,0.6711 0.9379,0.6704 0.3943,-0.0015 0.5231,-0.3301 0.5231,-0.3301z"/>
  <path class="fil29" d="M160.333 108.542l-1.4867 -0.2115c-0.2225,-0.0309 -0.4473,-0.2166 -0.5033,-0.414l-0.8207 -2.9029c-0.0559,-0.1974 0.0788,-0.3315 0.3006,-0.2998l1.4868 0.2107c0.2225,0.0317 0.4479,0.2173 0.5032,0.4148l0.8215 2.9028c0.0553,0.1975 -0.0796,0.3316 -0.3014,0.2999z"/>
  <path class="fil10" d="M160.024 108.499l-1.4868 -0.2114c-0.2224,-0.0317 -0.4472,-0.2174 -0.5032,-0.4148l-0.8207 -2.9029c-0.056,-0.1974 0.0788,-0.3315 0.3005,-0.2998l1.4868 0.2114c0.2226,0.0317 0.448,0.2166 0.5032,0.4141l0.8215 2.9028c0.0553,0.1974 -0.0796,0.3315 -0.3013,0.3006z"/>
  <path class="fil29" d="M157.466 105.041c-0.0229,-0.0825 0.033,-0.1377 0.1251,-0.1252 0.0922,0.0133 0.1857,0.0906 0.2093,0.1724 0.0229,0.0818 -0.0332,0.1378 -0.1253,0.1245 -0.092,-0.0132 -0.1856,-0.0899 -0.2091,-0.1717z"/>
  <path class="fil9" d="M161.072 108.131c0,0 -1.0057,0.014 -1.2577,-0.0457 -0.2526,-0.0597 -0.8966,-0.8598 -0.7249,-1.0595 0.1083,-0.1267 0.7095,0.0995 0.9953,0.0988 0.2867,-0.0008 1.0307,-0.4149 1.5391,0.4324 0.0575,0.0958 -0.5518,0.574 -0.5518,0.574z"/>
  <path class="fil12" d="M165.389 110.045c0,0 -1.0824,1.0145 -5.6134,1.1604 -4.531,0.1459 -10.4384,5.1529 -10.4936,6.5667 -0.0553,1.4131 9.124,3.5615 9.2654,3.3589 0.1422,-0.2026 5.8204,-5.0799 5.8204,-5.0799l1.0212 -6.0061z"/>
  <path class="fil11" d="M175.118 123.108c-5.0409,-6.2927 -15.3961,2.2854 -18.0757,2.043 -2.4637,-0.2225 4.8044,-8.8227 13.8172,-10.1024 3.644,-0.5172 2.7709,-4.2821 2.7694,-4.3985 0.1018,0.8525 0.1717,1.7793 0.2078,2.7843 0.1312,3.6601 0.8524,6.9166 1.2813,9.6736z"/>
  <path class="fil30" d="M188.288 132.139l-171.863 -0.059c-0.1152,0 -0.2095,-0.0943 -0.2095,-0.21l0.0001 -0.1068c0,-0.1157 0.0943,-0.21 0.2095,-0.2092l171.863 0.0589c0.1149,0 0.2092,0.0943 0.2092,0.2092l0 0.1076c0,0.1149 -0.0943,0.2093 -0.2092,0.2093z"/>
  <polygon class="fil15" points="117.294,36.4718 127.11,38.5027 120.817,33.6126 120.393,35.0279 117.958,35.3139 "/>
  <polygon class="fil26" points="127.11,38.5027 119.134,33.7389 111.08,32.8285 "/>
  <polygon class="fil26" points="120.817,33.6126 127.11,38.5027 122.459,31.1836 "/>
  <polygon class="fil15" points="55.6084,64.0982 45.792,66.129 52.0852,61.2389 52.5091,62.6543 54.945,62.9402 "/>
  <polygon class="fil26" points="45.792,66.129 53.7691,61.3653 61.822,60.4549 "/>
  <polygon class="fil26" points="52.0852,61.2389 45.792,66.129 50.4433,58.8099 "/>
  <path class="fil5" d="M71.6923 66.9347l0.2871 -0.3414c0.26,0.2251 0.5199,0.353 0.8575,0.353 0.2948,0 0.4811,-0.1357 0.4811,-0.3491 0,-0.1941 -0.1087,-0.2988 -0.613,-0.4191 -0.5781,-0.1358 -0.9041,-0.3065 -0.9041,-0.8148 0,-0.4656 0.388,-0.7876 0.9273,-0.7876 0.3958,-0.0001 0.71,0.1203 0.9855,0.3415l-0.256 0.3607c-0.2445,-0.1823 -0.4889,-0.2793 -0.7372,-0.2793 -0.2794,0 -0.4423,0.1436 -0.4423,0.3298 0,0.2096 0.1241,0.3027 0.644,0.4268 0.5742,0.1397 0.8733,0.3453 0.8733,0.8032 0.0001,0.5082 -0.3999,0.8109 -0.9703,0.8109 -0.4151,0 -0.807,-0.1436 -1.1329,-0.4346z"/>
  <path class="fil5" d="M75.7082 66.1626c-0.031,-0.3026 -0.21,-0.5393 -0.5202,-0.5393 -0.2873,0 -0.4885,0.2212 -0.5312,0.5393l1.0514 0zm-1.517 0.1436c0,-0.5859 0.4148,-1.067 1.0005,-1.067 0.6521,0 0.9821,0.5121 0.9821,1.1019 0,0.031 -0.0037,0.1087 -0.0081,0.1319l-1.5052 0c0.0501,0.3336 0.2873,0.5199 0.5894,0.5199 0.2292,0 0.392,-0.0854 0.5555,-0.2444l0.2748 0.2444c-0.1937,0.2328 -0.4612,0.3841 -0.8377,0.3841 -0.5938,0 -1.0513,-0.4307 -1.0513,-1.0708z"/>
  <path class="fil5" d="M77.9118 66.473c-0.1201,-0.0466 -0.2873,-0.0814 -0.4693,-0.0814 -0.2947,-0.0001 -0.4693,0.1202 -0.4693,0.3258 0,0.194 0.1746,0.3026 0.3956,0.3026 0.3102,0 0.543,-0.1745 0.543,-0.4306l0 -0.1164zm-0.0118 0.8575l0 -0.2523c-0.1392,0.167 -0.3529,0.295 -0.6631,0.295 -0.3882,0 -0.7294,-0.2212 -0.7294,-0.6402 0.0001,-0.454 0.353,-0.6712 0.8304,-0.6712 0.2483,0 0.4074,0.0349 0.5658,0.0853l0 -0.0388c0,-0.2832 -0.1783,-0.4384 -0.5039,-0.4384 -0.2291,0 -0.4001,0.0504 -0.5858,0.128l-0.1281 -0.3764c0.2247,-0.1009 0.4464,-0.1707 0.7794,-0.1707 0.6057,0 0.9003,0.3182 0.9003,0.8652l0.0001 1.2145 -0.4657 0z"/>
  <path class="fil5" d="M78.9241 65.2818l0.4701 0 0 0.4618c0.1282,-0.3065 0.3647,-0.516 0.7249,-0.5005l0 0.4966 -0.0265 0c-0.4118,0 -0.6984,0.2677 -0.6984,0.8109l0 0.7799 -0.4701 0 0 -2.0487z"/>
  <path class="fil5" d="M80.3446 66.3101c0,-0.5821 0.4501,-1.0709 1.0631,-1.0709 0.3883,0 0.6285,0.1435 0.8186,0.3531l-0.2911 0.3142c-0.1436,-0.1513 -0.2947,-0.256 -0.5312,-0.256 -0.3418,0 -0.5901,0.2948 -0.5901,0.6596 0,0.3647 0.2527,0.6595 0.613,0.6595 0.221,0 0.3846,-0.1047 0.5319,-0.256l0.2829 0.2793c-0.2018,0.225 -0.4384,0.3841 -0.8377,0.3841 -0.6093,0 -1.0594,-0.4772 -1.0594,-1.0669z"/>
  <path class="fil5" d="M82.6727 64.4981l0.4693 0 0 1.1019c0.132,-0.1939 0.322,-0.3608 0.6403,-0.3608 0.4619,0 0.7294,0.3103 0.7294,0.7876l0 1.3037 -0.4693 0 0 -1.164c0,-0.3181 -0.1592,-0.5005 -0.4384,-0.5005 -0.2719,0 -0.462,0.1901 -0.462,0.5082l0 1.1563 -0.4693 0 0 -2.8324z"/>
  <polygon class="fil5" points="85.0473,66.7989 85.563,66.7989 85.563,67.3305 85.0473,67.3305 "/>
  <polygon class="fil5" points="86.0906,66.7989 86.607,66.7989 86.607,67.3305 86.0906,67.3305 "/>
  <polygon class="fil5" points="87.1346,66.7989 87.6503,66.7989 87.6503,67.3305 87.1346,67.3305 "/>
  <polygon class="fil5" points="88.1786,66.7989 88.6943,66.7989 88.6943,67.3305 88.1786,67.3305 "/>
  <path class="fil31" d="M115.319 92.319c0,-0.2778 0.2254,-0.5025 0.5024,-0.5025 0.2778,0 0.5032,0.2247 0.5032,0.5025 0,0.277 -0.2255,0.5024 -0.5032,0.5024 -0.277,0 -0.5025,-0.2254 -0.5024,-0.5024z"/>
  <path class="fil31" d="M138.687 92.4538l-22.7297 0c-0.0744,0 -0.1356,-0.0604 -0.1356,-0.1348 0,-0.0752 0.0611,-0.1356 0.1355,-0.1356l22.7298 0c0.0744,0 0.1348,0.0604 0.1348,0.1356 0,0.0743 -0.0604,0.1348 -0.1348,0.1348z"/>
 </g>
</svg>
