<?xml version="1.0" encoding="UTF-8"?>
<!DOCTYPE svg PUBLIC "-//W3C//DTD SVG 1.1//EN" "http://www.w3.org/Graphics/SVG/1.1/DTD/svg11.dtd">
<!-- Creator: CorelDRAW -->
<svg xmlns="http://www.w3.org/2000/svg" xml:space="preserve" width="350mm" height="210mm" style="shape-rendering:geometricPrecision; text-rendering:geometricPrecision; image-rendering:optimizeQuality; fill-rule:evenodd; clip-rule:evenodd"
viewBox="0 0 297 210"
 xmlns:xlink="http://www.w3.org/1999/xlink">
 <defs>
  <style type="text/css">
   <![CDATA[
    .fil1 {fill: #EDE810;}
    .fil21 {fill: #702C91;}
    .fil9 {fill: #00ACDC;}
    .fil19 {fill: #472F91;}
    .fil18 {fill: #2E3192;}
    .fil20 {fill: #5C2E91;}
    .fil5 {fill: #71BF45;}
    .fil8 {fill: #00ABBD;}
    .fil0 {fill: #D6DF20;}
    .fil22 {fill: #92278F;}
    .fil14 {fill: #017DC7;}
    .fil16 {fill: #0C4DA1;}
    .fil15 {fill: #0065B3;}
    .fil17 {fill: #213E9A;}
    .fil11 {fill: #00A0E4;}
    .fil6 {fill: #4DB748;}
    .fil12 {fill: #0095DA;}
    .fil23 {fill: #A2238E;}
    .fil10 {fill: #00ADF0;}
    .fil13 {fill: #0089D1;}
    .fil24 {fill: #B41D8E;}
    .fil3 {fill: #A6CE38;}
    .fil4 {fill: #8CC63E;}
    .fil7 {fill: #01A790;}
    .fil2 {fill: #BFD630;}
    .fil25 {fill:#2B2A29;fill-rule:nonzero;transform: translateX(13px);}
   ]]>
  </style>
 </defs>
 <g id="Layer_x0020_1">
  <metadata id="CorelCorpID_0Corel-Layer"/>
  <g id="_850640104">
   <path id="_850969024" class="fil0" d="M83.2666 74.7323l0.075 0.0867c0.4121,0.3525 3.2425,3.5131 3.5147,7.1602 0.0825,1.1086 -0.4385,2.9115 -0.8208,3.8788l-8.8581 4.2107c-2.26,-0.7397 -4.7877,-2.7201 -5.8299,-4.1228 -0.1691,-0.1933 -0.3409,-0.3845 -0.5152,-0.5732l12.4343 -10.6404z"/>
   <path id="_211223456" class="fil1" d="M86.8618 82.3585c-0.2804,6.6153 -6.2139,7.8926 -8.2778,7.8508 -2.0639,-0.0419 -3.018,-0.8665 -3.5322,-1.1556l11.81 -6.6952z"/>
   <path id="_850968880" class="fil2" d="M75.2113 67.2459c2.9052,2.2048 6.5508,5.6846 8.7139,8.2048l-12.5777 10.4952c-1.4951,-1.6072 -4.302,-4.0547 -6.1258,-5.2895l9.9896 -13.4105z"/>
   <path id="_850968640" class="fil3" d="M66.0777 62.3779c3.4342,1.3452 7.009,3.2555 9.6357,5.2378l-10.143 13.2672c-1.7868,-1.1893 -4.3608,-2.4231 -6.3972,-3.1962l6.9045 -15.3088z"/>
   <path id="_850984648" class="fil4" d="M56.1979 60.1416c3.6972,0.4262 7.3759,1.2625 10.3411,2.4101l-6.9585 15.282c-1.9624,-0.7251 -4.0249,-1.2434 -6.1612,-1.5291l2.7786 -16.163z"/>
   <path id="_850984528" class="fil5" d="M49.5919 59.9135c2.554,-0.0737 4.6912,0.005 6.9382,0.2654l-2.8452 16.1626c-1.2131,-0.1562 -3.0575,-0.2934 -4.1103,-0.2945 -1.0528,-0.0012 -1.9835,0.0638 -2.8154,0.1349l-0.5503 -16.0735c0.9637,-0.0752 2.4414,-0.1959 3.383,-0.1949z"/>
   <path id="_850983856" class="fil6" d="M46.982 76.1609c-2.0719,0.1817 -4.64,0.7609 -6.564,1.3558l-3.6941 -15.4499c3.254,-1.0243 6.5823,-1.7432 9.7481,-1.9791l0.51 16.0732z"/>
   <path id="_850984144" class="fil7" d="M40.7082 77.4214c-1.9323,0.6185 -4.1654,1.66 -5.8977,2.6494l-7.0877 -14.0394c2.8945,-1.5983 6.2602,-3.0907 9.2806,-4.055l3.7048 15.445z"/>
   <path id="_850983328" class="fil8" d="M35.068 79.9192c-1.7219,0.9957 -3.757,2.5501 -5.2316,3.8665l-10.1312 -12.16c2.4893,-2.0764 5.5297,-4.2231 8.3065,-5.7556l7.0563 14.0491z"/>
   <path id="_850983160" class="fil9" d="M30.0875 83.5538c-1.4508,1.3164 -3.0964,3.2406 -4.2563,4.8243l-12.6406 -9.9538c1.9991,-2.5304 4.3406,-4.9782 6.7791,-7.0222l10.1178 12.1517z"/>
   <path id="_850983640" class="fil10" d="M26.0481 88.0713c-1.1344,1.5708 -2.3427,3.7814 -3.1481,5.5668l-14.7682 -6.9525c1.3877,-2.939 3.2285,-5.9411 5.1998,-8.4412l12.7165 9.8269z"/>
   <path id="_850983400" class="fil11" d="M23.0334 93.3281c-0.7762,1.7585 -1.509,4.2223 -1.9248,6.1439l-16.0131 -3.233c0.6467,-3.2375 1.7794,-6.8747 3.1194,-9.732l14.8185 6.8211z"/>
   <path id="_850982344" class="fil12" d="M21.1877 99.0744c-0.3902,1.8717 -0.5985,4.178 -0.6082,6.1633l-16.1229 0.0826c-0.0037,-0.1185 -0.0098,-0.2366 -0.0126,-0.3554 -0.0999,-3.222 0.1699,-6.3047 0.7497,-9.2401l15.994 3.3496z"/>
   <path id="_850982296" class="fil13" d="M20.5785 105.068c0.0037,1.9986 0.3019,4.3709 0.6912,6.2552l-15.4247 3.9347c-0.7509,-3.0812 -1.2824,-6.6299 -1.3865,-9.8825l16.12 -0.3074z"/>
   <path id="_850982272" class="fil14" d="M21.2023 111.018c0.4137,1.961 1.3149,4.4869 2.1033,6.2799l-14.0191 7.2856c-1.3704,-2.8861 -2.7429,-6.4383 -3.5069,-9.5902l15.4227 -3.9753z"/>
   <path id="_850982248" class="fil15" d="M23.1289 116.917c0.8309,1.8404 2.1711,4.0105 3.3512,5.6223l-12.1274 10.1181c-1.9629,-2.5632 -3.9046,-5.6448 -5.3128,-8.5788l14.089 -7.1616z"/>
   <path id="_850982224" class="fil16" d="M26.3141 122.32c1.2222,1.6374 2.9426,3.424 4.4769,4.7686l-9.5384 12.7073c-2.5008,-2.1165 -5.0333,-4.7177 -7.0387,-7.3175l12.1002 -10.1584z"/>
   <path id="_850981888" class="fil17" d="M30.6387 126.959c1.5692,1.3529 3.7691,2.7955 5.6047,3.7906l-6.6139 14.5803c-2.9643,-1.5382 -6.0091,-3.5394 -8.5472,-5.6761l9.5564 -12.6948z"/>
   <path id="_850982080" class="fil18" d="M35.9846 130.614c1.8546,0.9839 4.0389,1.8114 6.1053,2.3769l-3.0949 15.8215c-3.3164,-0.8255 -6.5299,-2.0239 -9.5024,-3.5531l6.492 -14.6453z"/>
   <path id="_850982128" class="fil19" d="M42.0171 132.971c2.0457,0.5552 4.4068,0.9008 6.6061,0.9923l0.5079 16.1461c-3.5013,-0.047 -7.0035,-0.5061 -10.2504,-1.3258l3.1364 -15.8126z"/>
   <path id="_850980904" class="fil20" d="M48.5446 133.96c0.3215,0.0108 -0.1484,0.0177 0.9681,0.0189 1.1165,0.0012 4.0199,-0.2295 5.8259,-0.58l4.1462 15.6132c-3.1694,0.7023 -8.2247,1.1022 -9.9894,1.1003 -1.7647,-0.0019 -0.295,-0.0046 -0.4429,-0.0063l-0.5079 -16.1461z"/>
   <path id="_850980712" class="fil21" d="M55.2214 133.422c2.2153,-0.45 4.4993,-1.2274 6.4996,-2.1517l7.534 14.2814c-3.1012,1.5177 -6.4367,2.7066 -9.8874,3.4835l-4.1462 -15.6132z"/>
   <path id="_850981456" class="fil22" d="M61.6136 131.319c2.0552,-0.965 4.3245,-2.3338 6.0815,-3.7332l10.5275 12.2312c-2.7024,2.2288 -5.9613,4.259 -9.1374,5.8169l-7.4716 -14.3149z"/>
   <path id="_850981120" class="fil23" d="M67.6951 127.586c1.1889,-0.9573 2.3012,-2.0065 3.3252,-3.1371 0.4609,-0.586 1.0718,-1.3072 1.5844,-1.8575l12.9021 9.4822c-0.398,0.6321 -0.8929,1.2914 -1.394,1.9016 -1.7803,2.1226 -3.753,4.0786 -5.8902,5.842l-10.5275 -12.2312z"/>
   <path id="_850981216" class="fil24" d="M72.6047 122.592c1.5887,-1.6694 3.4751,-2.9867 5.9482,-2.984 4.5637,0.0048 8.2592,3.7082 8.2543,8.2719 -0.0017,1.5927 -0.5172,2.9364 -1.3004,4.1943l-12.9021 -9.4822z"/>
   <path id="_850980256" class="fil25" d="M100.915 123.709c-3.6675,-0.0422 -6.8924,-0.8115 -9.6747,-2.3081 -2.7823,-1.4965 -4.9744,-3.5516 -6.5763,-6.1652 -1.6019,-2.6137 -2.4029,-5.6278 -2.4029,-9.0424 -0.0421,-3.4147 0.7588,-6.4393 2.4029,-9.0741 1.6441,-2.6347 3.8572,-4.7003 6.6395,-6.1969 2.7823,-1.4965 5.965,-2.2237 9.5483,-2.1815 3.6254,-0.0422 6.8503,0.685 9.6747,2.1815 2.8245,1.4966 5.0271,3.5622 6.6079,6.1969 1.5809,2.6348 2.3713,5.6594 2.3713,9.0741 0.0422,3.3724 -0.7377,6.376 -2.3396,9.0107 -1.602,2.6348 -3.8151,4.7004 -6.6396,6.1969 -2.8244,1.4966 -6.0282,2.2659 -9.6115,2.3081zm0 -8.0939c1.6441,0 3.1195,-0.3794 4.4264,-1.1382 1.3068,-0.7588 2.3396,-1.8444 3.0984,-3.2566 0.7588,-1.4122 1.1382,-3.0879 1.1382,-5.027 0,-1.9814 -0.3794,-3.6676 -1.1382,-5.0587 -0.7588,-1.3912 -1.7916,-2.4661 -3.0984,-3.2249 -1.3069,-0.7588 -2.8034,-1.1382 -4.4896,-1.1382 -1.6019,0 -3.0563,0.3794 -4.3631,1.1382 -1.3069,0.7588 -2.3502,1.8337 -3.1301,3.2249 -0.7799,1.3911 -1.1698,3.0773 -1.1698,5.0587 0,1.9391 0.3899,3.6148 1.1698,5.027 0.7799,1.4122 1.8127,2.5083 3.0985,3.2882 1.2857,0.7799 2.7717,1.1487 4.4579,1.1066zm25.2302 7.588l0 -34.0197 9.4218 0 0 9.6115 -1.3279 -2.7822c1.0118,-2.4029 2.6348,-4.2262 4.869,-5.4698 2.2343,-1.2435 4.9533,-1.8653 8.1571,-1.8653l0 9.1056c-0.4215,-0.0422 -0.8009,-0.0738 -1.1382,-0.0949 -0.3372,-0.021 -0.6955,-0.0316 -1.0749,-0.0316 -2.698,0 -4.8796,0.7694 -6.5447,2.3081 -1.6652,1.5386 -2.4977,3.931 -2.4977,7.177l0 16.0613 -9.8645 0zm47.362 0.5059c-2.8666,0 -5.3749,-0.6324 -7.5248,-1.897 -2.1499,-1.2647 -3.8256,-3.1933 -5.0271,-5.7859 -1.2014,-2.5926 -1.8021,-5.8702 -1.8021,-9.8328 0,-4.0048 0.5691,-7.293 1.7073,-9.8645 1.1382,-2.5715 2.7823,-4.4896 4.9322,-5.7542 2.1499,-1.2647 4.7214,-1.897 7.7145,-1.897 3.2038,0 6.081,0.7271 8.6314,2.1815 2.5504,1.4544 4.5739,3.4884 6.0704,6.1021 1.4965,2.6136 2.2448,5.691 2.2448,9.2321 0,3.5832 -0.7483,6.6816 -2.2448,9.2953 -1.4965,2.6137 -3.52,4.6371 -6.0704,6.0704 -2.5504,1.4333 -5.4276,2.15 -8.6314,2.15zm-20.1083 11.7614l0 -46.287 9.4218 0 0 6.9557 -0.1897 10.1174 0.6324 10.0541 0 19.1598 -9.8645 0zm18.401 -19.8553c1.6441,0 3.109,-0.3794 4.3947,-1.1382 1.2858,-0.7588 2.3186,-1.8444 3.0985,-3.2566 0.7799,-1.4122 1.1698,-3.0879 1.1698,-5.027 0,-1.9814 -0.3899,-3.6676 -1.1698,-5.0587 -0.7799,-1.3912 -1.8127,-2.4661 -3.0985,-3.2249 -1.2857,-0.7588 -2.7506,-1.1382 -4.3947,-1.1382 -1.6441,0 -3.1195,0.3794 -4.4264,1.1382 -1.3068,0.7588 -2.3396,1.8337 -3.0984,3.2249 -0.7588,1.3911 -1.1382,3.0773 -1.1382,5.0587 0,1.9391 0.3794,3.6148 1.1382,5.027 0.7588,1.4122 1.7916,2.4978 3.0984,3.2566 1.3069,0.7588 2.7823,1.1382 4.4264,1.1382zm45.9076 -26.9375c2.698,0 5.1114,0.5374 7.2403,1.6124 2.1288,1.075 3.8045,2.7191 5.027,4.9322 1.2225,2.2132 1.8338,5.0482 1.8338,8.505l0 19.4759 -9.8644 0 0 -17.9583c0,-2.7402 -0.6008,-4.7636 -1.8022,-6.0705 -1.2014,-1.3068 -2.8982,-1.9602 -5.0903,-1.9602 -1.5598,0 -2.9614,0.3267 -4.205,0.9801 -1.2436,0.6534 -2.2132,1.6546 -2.9088,3.0036 -0.6956,1.349 -1.0433,3.0774 -1.0433,5.1852l0 16.8201 -9.8645 0 0 -34.0197 9.4218 0 0 9.4218 -1.7705 -2.8455c1.2225,-2.2764 2.972,-4.0259 5.2484,-5.2484 2.2764,-1.2225 4.869,-1.8337 7.7777,-1.8337zm23.1435 34.5255l-0.1265 -34.0197 9.8012 0.0633 0.0633 33.9564 -9.738 0zm4.8057 -38.7622c-1.8127,0 -3.2881,-0.5269 -4.4263,-1.5808 -1.1382,-1.0539 -1.7073,-2.3608 -1.7073,-3.9205 0,-1.5598 0.5691,-2.8666 1.7073,-3.9205 1.1382,-1.0539 2.6136,-1.5808 4.4263,-1.5808 1.8127,0 3.2882,0.4953 4.4264,1.4859 1.1382,0.9907 1.7073,2.2659 1.7073,3.8257 0,1.6441 -0.5586,3.0036 -1.6757,4.0785 -1.1171,1.075 -2.6031,1.6125 -4.458,1.6125zm9.8012 38.7622l15.2393 -19.9818 -0.1897 5.4381 -14.6069 -19.476 11.0658 0 9.2322 12.71 -4.1735 0.1264 9.5483 -12.8364 10.4968 0 -14.6702 19.2863 0 -5.3117 15.1761 20.0451 -11.1924 0 -9.6747 -13.532 4.1102 0.5691 -9.6116 12.9629 -10.7497 0z"/>
  </g>
 </g>
</svg>
