<?xml version="1.0" encoding="UTF-8"?>
<!DOCTYPE svg PUBLIC "-//W3C//DTD SVG 1.1//EN" "http://www.w3.org/Graphics/SVG/1.1/DTD/svg11.dtd">
<!-- Creator: CorelDRAW -->
<svg xmlns="http://www.w3.org/2000/svg" xml:space="preserve" width="5000px" height="5000px" style="shape-rendering:geometricPrecision; text-rendering:geometricPrecision; image-rendering:optimizeQuality; fill-rule:evenodd; clip-rule:evenodd"
viewBox="0 0 5000 5000"
 xmlns:xlink="http://www.w3.org/1999/xlink">
 <defs>
  <style type="text/css">
   <![CDATA[
    .fil1 {fill:black;fill-rule:nonzero}
    .fil0 {fill:white;fill-rule:nonzero}
   ]]>
  </style>
 </defs>
 <g id="Layer_x0020_1">
  <metadata id="CorelCorpID_0Corel-Layer"/>
  <g id="_259174360">
   <path id="_259175632" class="fil0" d="M663.848 4715l517.229 -789.587c245.156,121.89 519.108,182.847 821.862,182.847 42.6508,0 84.6567,-1.17992 126.037,-3.49725l-392.44 610.238 -1072.69 0zm950.482 -1450.98l563.658 -860.461 -613.435 -947.365c123.652,-70.3477 266.495,-105.526 428.519,-105.526 161.147,0 305.027,37.8213 431.642,113.463 126.615,75.6402 224.458,185.813 293.518,330.514l927.42 0c-85.2118,-323.795 -242.798,-588.71 -472.739,-794.758l436.703 -714.887 1036.59 0 -1377.99 2151.57 307.747 463.088 -857.725 0c-69.0603,144.702 -166.903,254.874 -293.518,330.514 -126.615,75.6414 -270.495,113.464 -431.642,113.464 -140.725,0 -266.966,-26.5488 -378.742,-79.6134zm-481.755 -2474.95l-326.391 -504.065 1044.84 0 185.12 296.365c-11.0268,-0.159449 -22.0937,-0.255118 -33.2079,-0.255118 -322.878,0 -612.998,69.3284 -870.364,207.956zm2492.18 2184.02l1157.6 1741.91 -1078.88 0 -612.032 -954.695c255.632,-198.403 433.413,-460.803 533.316,-787.217z"/>
   <path id="_263592704" class="fil1" d="M217.645 2383.52c0,-342.024 73.9973,-647.055 221.988,-915.085 147.991,-268.03 354.359,-476.862 619.103,-626.501 26.4685,-14.9587 53.2914,-29.1602 80.4662,-42.6236l431.906 667.015c-94.8709,44.9209 -179.341,108.925 -253.387,192.034 -161.147,180.88 -241.721,422.602 -241.721,725.16 0,302.562 80.5772,544.284 241.721,725.164 65.9303,74.0008 214.165,111.608 296.608,155.336l-433.253 661.392c-16.2626,-8.49803 -122.34,-5.23937 -122.34,-5.23937 -264.741,-149.634 -471.112,-357.645 -619.103,-624.032 -147.991,-266.387 -221.988,-570.593 -221.988,-912.62z"/>
  </g>
 </g>
</svg>
